/* XPM */
static const char * links_xpm[] = {
"15 15 10 1",
" 	c None",
".	c #884499",
"+	c #9FB9F9",
"@	c #C8D6F7",
"#	c #778833",
"$	c #333333",
"%	c #773366",
"&	c #2969F4",
"*	c #99BB66",
"=	c #886677",
"     .+@#.     ",
"   .+@@@@#$%   ",
"  %@@@@++##&%  ",
" .&@++++*###$% ",
" &@@++++***#=& ",
".@+++++****#=$%",
"&@+++++++*##&&$",
"#+++++++&&&=$$$",
"&##+++&&+&$&&$$",
".###+&&&&&$&$$%",
" &###&&&&$&$$$ ",
" .&+&&&&&$$$$% ",
"  &&$$&$&$$$$  ",
"   .$$$$$$$%   ",
"     %$$$%     "};
