/* XPM */
static const char * nv_xpm[] = {
"23 16 16 1",
" 	c None",
".	c #423643",
"+	c #352C37",
"@	c #42313C",
"#	c #585965",
"$	c #9998A6",
"%	c #281D2C",
"&	c #ECEEFD",
"*	c #DAE3FA",
"=	c #847B8C",
"-	c #B7B7C6",
";	c #CCCBD8",
">	c #D5DAEF",
",	c #3A3946",
"'	c #777886",
")	c #BCBFCC",
"..+++.@++#$$$$$$$$$$$$$",
"+.+.+++%%$&&&**&******&",
"+.++%+#=$-$$;******>***",
",++#$;;-$;$'##$&*>**>>*",
"++#;&-.+.-*&;',#>**>>>*",
"#$&>#+$;>$##-&-,,-*>***",
"#&>#,-&$.--+%$&;++)&*>*",
".-&=.&;.%)&-=;&#,';&***",
"+'&;+#&$+-&&&>#%$&>$>**",
"+.-&$.$&$)>)$##)&-#,#$*",
"@++$&-+'>$###-&&=+%%#)&",
"@@+.$&;'';>*&;$.%,#$;&*",
"@+@++#)&*$###,,#$;****>",
"+@+@,+,#'--$--;&&&*>>**",
"@@@@@+++,>&&&&&*>&&&&**",
"++@@@@+..=$$=$$$=$=$$$$"};
