/* XPM */
static const char * people_xpm[] = {
"20 20 11 1",
" 	c None",
".	c #000000",
"+	c #FFFFC0",
"@	c #FBDBAC",
"#	c #FFA858",
"$	c #808080",
"%	c #8CACF7",
"&	c #C2D2F9",
"*	c #4B7EF4",
"=	c #A0A0A4",
"-	c #585858",
"   ...              ",
"  .+@@.             ",
"  .+@#.$...         ",
"  .+##..+@@.        ",
"   ...$.+@#.$...    ",
"...%%%..+##..+@@.   ",
".&*%%*%*...$.+@#.$  ",
".&*%%...%%%..+##.$  ",
".&*%%.&*%%*%*...$$$ ",
"......&*%%...%%%...$",
".@.$=.&*%%.&*%%*%*.$",
" ..$=......&*%%*%*.$",
"  .$=.@.$=.&*%%*%*.$",
"  .$=$..$=.........$",
"  .---..$=.@.$=$.@.$",
"  ......$=$..$=$..$ ",
"       .---..$=$.$  ",
"       ......$=$.$  ",
"            .---.$  ",
"            .....$  "};
