/* XPM */
static const char * x_xpm[] = {
"20 20 32 1",
" 	c None",
".	c #1E1E1E",
"+	c #222222",
"@	c #161616",
"#	c #424242",
"$	c #262626",
"%	c #0A0A0A",
"&	c #868686",
"*	c #7E7E7E",
"=	c #9998A6",
"-	c #626262",
";	c #3E3E3E",
">	c #4E4E4E",
",	c #565656",
"'	c #464646",
")	c #2E2E2E",
"!	c #525252",
"~	c #1A1A1A",
"{	c #2A2A2A",
"]	c #121212",
"^	c #363636",
"/	c #5D5D5D",
"(	c #6A6A6A",
"_	c #4A4A4A",
":	c #7A7A7A",
"<	c #6E6E6E",
"[	c #3A3A3A",
"}	c #060606",
"|	c #0E0E0E",
"1	c #323232",
"2	c #727272",
"3	c #A2A2A2",
"                    ",
" .+@@#           $% ",
" &*=#.@         -=% ",
"   ;=>;,       ')-  ",
"   ,*=!>~      ={   ",
"    ,!=;]     @^    ",
"     /(=_:   <=-    ",
"     :_;'[}  #^     ",
"      |>_=| |1(     ",
"       ..|=]%       ",
"       |====|       ",
"      =)=22=$|      ",
"     /=1 @3_=;:     ",
"     )1=  :!!=^     ",
"    11,    '_1=$    ",
"   @^=     2,>_=;   ",
"  =#1       /'!^@   ",
"  ]+         !1{)~< ",
" %$(          #%|;$ ",
"                    "};
